<?xml version="1.0" encoding="iso-8859-1"?>
<!-- Generator: Adobe Illustrator 18.1.1, SVG Export Plug-In . SVG Version: 6.00 Build 0)  -->
<svg  version="1.1" id="Capa_1" xmlns="http://www.w3.org/2000/svg" xmlns:xlink="http://www.w3.org/1999/xlink" x="0px" y="0px"
	 viewBox="0 0 30.051 30.051" style="enable-background:new 0 0 30.051 30.051;" xml:space="preserve">
<g>
	<path style="fill:#eee;" d="M13.766,14.507l5.082-3.688c0.184-0.135,0.43-0.154,0.633-0.049
		c0.207,0.104,0.338,0.312,0.338,0.541v7.381c0,0.23-0.131,0.439-0.338,0.545c-0.082,0.039-0.182,0.062-0.275,0.062
		c-0.127,0-0.252-0.037-0.357-0.117l-5.082-3.688c-0.156-0.113-0.252-0.297-0.252-0.494C13.514,14.809,13.611,14.621,13.766,14.507z
		"/>
	<path style="fill:#eee;" d="M10.574,10.74h1.541c0.189,0,0.342,0.154,0.342,0.34v7.926c0,0.189-0.152,0.346-0.342,0.346h-1.541
		c-0.189,0-0.34-0.156-0.34-0.346v-7.926C10.234,10.894,10.385,10.74,10.574,10.74z"/>
	<path style="fill:#eee;" d="M30.051,15.026c0-8.298-6.725-15.025-15.026-15.025C6.729,0.002,0,6.729,0,15.026
		c0,8.301,6.729,15.023,15.025,15.023C23.326,30.05,30.051,23.327,30.051,15.026z M27.541,15.026
		c0,6.914-5.604,12.516-12.516,12.516S2.512,21.94,2.512,15.026S8.113,2.512,15.025,2.512S27.541,8.113,27.541,15.026z"/>
</g>
<g>
</g>
<g>
</g>
<g>
</g>
<g>
</g>
<g>
</g>
<g>
</g>
<g>
</g>
<g>
</g>
<g>
</g>
<g>
</g>
<g>
</g>
<g>
</g>
<g>
</g>
<g>
</g>
<g>
</g>
</svg>
